<svg xmlns="http://www.w3.org/2000/svg" xmlns:xlink="http://www.w3.org/1999/xlink" version="1.1" id="Слой_1" x="0px" y="0px" style="enable-background:new 0 0 9.2 9.2;" xml:space="preserve" viewBox="1.11 1 7.21 7.2">
<style type="text/css">
	.st0{fill-rule:evenodd;clip-rule:evenodd;fill:#14A0D4;}
</style>
<path class="st0" d="M4.47,1.01C3.32,1.13,2.6,1.58,2.05,2.19c-2.17,2.39-0.31,6.25,2.95,6c3.04-0.23,4.53-3.98,2.13-6.26  C6.58,1.41,5.54,0.91,4.47,1.01 M6.4,3.6C6.28,4.32,6.17,5.03,6.06,5.75C6,6.1,6.03,6.59,5.57,6.43C5.42,6.38,4.15,5.6,4.15,5.38  c0-0.14,0.2-0.27,0.28-0.34l0.94-0.91c0.18-0.22,0-0.21-0.18-0.1L3.7,5.02C3.37,5.25,3.18,5.13,2.73,4.99  C2.6,4.94,2.33,4.91,2.38,4.74C2.41,4.61,3.03,4.4,3.21,4.33l2.62-1.09C6.28,3.05,6.5,2.95,6.4,3.6z"/>
</svg>