<svg xmlns="http://www.w3.org/2000/svg" xmlns:xlink="http://www.w3.org/1999/xlink" version="1.1" id="Слой_1" x="0px" y="0px" style="enable-background:new 0 0 9.2 9.2;" xml:space="preserve" viewBox="1 1.13 7.2 7.2">
<style type="text/css">
	.st0{fill-rule:evenodd;clip-rule:evenodd;fill:#26A736;}
</style>
<path class="st0" d="M4.76,5.74c0.15,0,0.26-0.03,0.35-0.1c0.08-0.07,0.13-0.17,0.13-0.3c0-0.13-0.04-0.23-0.13-0.3  c-0.08-0.07-0.2-0.11-0.35-0.1h-0.6v0.8H4.76z M4.15,3.74v0.67h0.6c0.11,0,0.21-0.03,0.27-0.09c0.07-0.06,0.1-0.15,0.1-0.26  c0-0.1-0.03-0.17-0.1-0.23C4.96,3.76,4.87,3.74,4.76,3.74H4.15z M5.45,4.63c0.3,0.14,0.45,0.39,0.45,0.75  c0,0.32-0.11,0.56-0.31,0.72c-0.2,0.16-0.48,0.24-0.82,0.24H3.49v-3.2h1.26c0.19,0,0.36,0.04,0.51,0.11  c0.15,0.07,0.27,0.17,0.36,0.31c0.09,0.14,0.13,0.3,0.13,0.48c0,0.12-0.03,0.24-0.08,0.35C5.62,4.49,5.54,4.58,5.45,4.63z   M7.47,4.73c0,0.05,0,0.1,0,0.14c0,0.06-0.02,0.25-0.03,0.29L7.42,5.25c0,0.02-0.01,0.04-0.01,0.06c-0.01,0.03,0,0.03-0.01,0.06  c-0.02,0.04,0,0.07-0.03,0.12L7.34,5.6C7.33,5.62,7.32,5.63,7.32,5.65c-0.01,0.03,0,0.02-0.02,0.05C7.29,5.73,7.28,5.76,7.27,5.8  c0,0,0,0,0,0c0,0,0,0,0,0L7.25,5.83c0,0.01,0,0.02-0.01,0.03c0,0.01-0.01,0.02-0.01,0.02L7.22,5.92c0,0,0,0,0,0l-0.05,0.1  c0,0.01,0,0.02-0.01,0.02C7.14,6.07,7.14,6.08,7.13,6.09L7.05,6.23c0,0.01,0,0-0.01,0.01C7.02,6.26,7.01,6.29,6.99,6.31L6.95,6.37  C6.93,6.39,6.92,6.42,6.91,6.44l-0.1,0.12C6.8,6.57,6.79,6.58,6.78,6.59L6.74,6.65C6.73,6.67,6.7,6.69,6.68,6.71  C6.67,6.72,6.66,6.73,6.65,6.74C6.61,6.79,6.57,6.83,6.52,6.87C6.5,6.89,6.47,6.9,6.45,6.93C6.44,6.95,6.39,6.97,6.36,6.99  C6.35,6.99,6.35,6.99,6.34,7L6.27,7.06C6.25,7.07,6.25,7.08,6.22,7.09c-0.04,0.02-0.07,0.05-0.1,0.07L5.86,7.3  C5.84,7.31,5.83,7.32,5.81,7.33C5.78,7.35,5.69,7.37,5.66,7.39C5.65,7.39,5.65,7.4,5.64,7.4c-0.01,0-0.02,0.01-0.03,0.01  C5.58,7.42,5.55,7.44,5.51,7.45c-0.01,0-0.02,0-0.03,0.01c0,0-0.01,0-0.01,0.01C5.45,7.47,5.42,7.47,5.4,7.48  C5.38,7.49,5.37,7.49,5.34,7.5C5.3,7.5,5.32,7.5,5.29,7.51c-0.02,0-0.04,0-0.06,0.01C5.21,7.53,5.2,7.53,5.18,7.54  c-0.05,0-0.08,0.01-0.12,0.02C5.01,7.56,4.97,7.56,4.93,7.57C4.88,7.58,4.85,7.58,4.8,7.58c-0.03,0-0.03,0.01-0.06,0.01  c-0.02,0-0.05,0-0.07,0c-0.17,0-0.3,0-0.47-0.03C4.16,7.56,4.11,7.55,4.08,7.54C4.05,7.54,4.04,7.54,4.02,7.53  C4,7.53,3.98,7.52,3.96,7.52c-0.02,0-0.04,0-0.06-0.01c-0.01,0-0.02-0.01-0.03-0.01c-0.01,0-0.02,0-0.03-0.01  c-0.02,0-0.04-0.01-0.05-0.02c-0.01,0-0.02,0-0.03-0.01L3.71,7.45c-0.02,0-0.01,0-0.03-0.01L3.52,7.39C3.51,7.38,3.51,7.38,3.5,7.38  c-0.01,0-0.01-0.01-0.02-0.01C3.46,7.36,3.45,7.36,3.43,7.35L3.4,7.33c-0.02-0.01,0-0.01-0.02-0.01c-0.01,0-0.02,0-0.03-0.01  L3.31,7.28C3.3,7.28,3.3,7.27,3.29,7.27C3.28,7.26,3.25,7.26,3.23,7.25L3.2,7.24c0,0,0,0,0,0L3.19,7.23  C3.17,7.22,3.17,7.21,3.14,7.2L3.03,7.14c-0.06-0.03-0.08-0.01-0.14,0c-0.03,0-0.04,0.01-0.06,0.02c-0.02,0-0.04,0-0.06,0.01  C2.74,7.17,2.75,7.17,2.71,7.17L2.54,7.22C2.52,7.22,2.5,7.22,2.48,7.23C2.46,7.24,2.46,7.24,2.43,7.24L2.31,7.27  C2.29,7.28,2.28,7.28,2.26,7.29C2.23,7.29,2.2,7.29,2.17,7.31C2.15,7.32,2.11,7.32,2.09,7.33C2,7.35,2.01,7.33,2.02,7.29  c0.02-0.05,0.03-0.15,0.05-0.17C2.08,7.1,2.08,7.08,2.08,7.06c0.01-0.05,0.06-0.19,0.06-0.22c0-0.03,0.01-0.03,0.02-0.06  c0.01-0.02,0.01-0.04,0.01-0.06C2.18,6.7,2.18,6.68,2.2,6.64C2.21,6.6,2.23,6.55,2.23,6.5c0.01-0.03,0.04-0.06,0.01-0.11L2.22,6.34  c-0.01-0.01,0-0.01-0.01-0.02C2.18,6.29,2.17,6.25,2.14,6.21C2.14,6.2,2.14,6.2,2.13,6.19C2.11,6.17,2.1,6.13,2.08,6.11  C2.07,6.09,2.06,6.06,2.04,6.03L1.97,5.89C1.96,5.87,1.96,5.86,1.95,5.84C1.94,5.82,1.94,5.81,1.93,5.79  C1.91,5.76,1.92,5.76,1.91,5.74C1.9,5.72,1.9,5.73,1.9,5.72L1.87,5.63C1.87,5.6,1.85,5.56,1.84,5.52C1.83,5.49,1.82,5.45,1.81,5.41  C1.8,5.34,1.77,5.26,1.76,5.18L1.75,5.09C1.74,5.04,1.74,4.97,1.73,4.92c0-0.04-0.01-0.23,0-0.27c0.01-0.07,0-0.18,0.02-0.27  c0-0.02,0.01-0.03,0.01-0.06c0-0.06,0.03-0.11,0.03-0.18c0-0.03,0.04-0.21,0.05-0.24l0.01-0.03C1.85,3.85,1.87,3.83,1.87,3.8  C1.88,3.76,1.9,3.73,1.91,3.7c0-0.01,0-0.02,0.01-0.03c0,0,0.01-0.02,0.01-0.02C1.94,3.63,1.94,3.62,1.95,3.6l0.02-0.05  c0.02-0.04,0.01-0.06,0.05-0.1C2.04,3.43,2.03,3.42,2.04,3.4l0.01-0.02c0.01-0.01,0.01-0.02,0.02-0.03l0.03-0.06  c0.02-0.03,0.04-0.07,0.06-0.1c0.01-0.01,0.01-0.01,0.02-0.02l0.06-0.09c0-0.01,0,0,0.01-0.01c0,0,0,0,0,0  c0.02-0.03,0.05-0.08,0.07-0.1c0.02-0.02,0.02-0.04,0.05-0.06L2.4,2.88c0.01-0.01,0.01-0.01,0.02-0.02  c0.01-0.01,0.02-0.03,0.03-0.04l0.17-0.17c0.01-0.02,0.03-0.02,0.05-0.04C2.68,2.6,2.68,2.59,2.7,2.57l0.1-0.09  c0,0,0.01-0.01,0.01-0.01l0.12-0.1c0.01-0.01,0.02-0.02,0.04-0.03C2.98,2.34,3,2.33,3.01,2.32l0.13-0.08C3.2,2.2,3.17,2.22,3.21,2.2  C3.22,2.2,3.22,2.19,3.23,2.19l0.03-0.01c0.01,0,0.02-0.01,0.02-0.01l0.04-0.03c0.03-0.01,0.03-0.02,0.05-0.02  C3.4,2.11,3.39,2.1,3.42,2.09c0.04-0.02,0.02-0.02,0.08-0.03l0.05-0.02c0.02-0.01,0.01-0.01,0.02-0.01l0.04-0.01c0,0,0,0,0.01,0  c0,0,0,0,0,0c0,0,0,0,0,0C3.63,2,3.72,1.98,3.75,1.97c0.02-0.01,0.06-0.01,0.08-0.02c0.01-0.01,0-0.01,0.02-0.01  c0.01,0,0.02,0,0.03,0l0.04-0.01c0.02-0.01-0.01,0,0.01,0c0.03-0.01,0.03,0,0.06-0.01c0.04-0.01,0.08-0.02,0.12-0.02  c0.06-0.01,0.13-0.01,0.19-0.02c0.11-0.02,0.26-0.01,0.38-0.01c0.06,0,0.04,0,0.08,0.01c0.08,0.01,0.18,0.01,0.27,0.03  C5.09,1.9,5.14,1.9,5.17,1.91c0.04,0.01,0.1,0.02,0.15,0.03l0.14,0.04C5.49,1.99,5.5,1.99,5.52,2c0.01,0,0.03,0.01,0.04,0.01  L5.78,2.1C5.8,2.11,5.79,2.11,5.8,2.11l0.04,0.02c0.01,0.01,0.02,0.01,0.03,0.01C5.93,2.17,5.96,2.2,5.99,2.21  c0.03,0.01,0.06,0.03,0.09,0.05C6.1,2.27,6.11,2.28,6.13,2.29C6.15,2.3,6.15,2.3,6.16,2.31l0.02,0.02C6.22,2.35,6.26,2.37,6.29,2.4  l0.03,0.02C6.35,2.44,6.37,2.46,6.4,2.48C6.42,2.49,6.42,2.5,6.44,2.52l0.05,0.04C6.51,2.58,6.52,2.59,6.54,2.6  c0.02,0.02,0.03,0.03,0.05,0.05C6.61,2.68,6.64,2.7,6.67,2.73l0.05,0.05c0.03,0.03,0.05,0.07,0.08,0.1C6.82,2.88,6.82,2.88,6.83,2.9  l0.08,0.1c0.01,0.02,0.02,0.04,0.04,0.05l0.02,0.02C6.97,3.09,6.99,3.11,7,3.13l0.03,0.06C7.04,3.2,7.06,3.22,7.07,3.24  c0,0.01,0.01,0.02,0.02,0.03l0.08,0.15c0.02,0.04,0.04,0.07,0.06,0.1c0,0.01,0,0.01,0.01,0.02l0.05,0.13  C7.29,3.69,7.29,3.67,7.3,3.72c0,0.02,0,0.02,0.01,0.04c0,0.01,0.01,0.02,0.01,0.04l0.05,0.15C7.37,3.97,7.38,3.98,7.38,4  c0,0.04,0.01,0.04,0.01,0.07c0.01,0.02,0,0.06,0.01,0.08c0.01,0.03,0.02,0.04,0.02,0.07c0,0.06,0.02,0.09,0.02,0.16  c0,0.03,0,0.06,0,0.09C7.47,4.58,7.47,4.6,7.47,4.73z M1,4.73c0,0.05,0,0.09,0,0.14c0,0.02,0,0.02,0.01,0.03  c0.01,0.04,0,0.13,0.01,0.17l0.02,0.12c0,0.02,0,0.04,0,0.07c0,0.02,0.01,0.04,0.01,0.06c0.01,0.02,0.01,0.04,0.01,0.06  c0,0.04,0.01,0.03,0.01,0.06c0.01,0.02,0,0.04,0.01,0.06l0.07,0.28C1.17,5.8,1.17,5.79,1.17,5.79l0.05,0.13  c0.01,0.01,0.01,0.01,0.01,0.03c0,0.02,0,0.01,0.01,0.03c0.01,0.03,0,0.02,0.02,0.05c0.02,0.02,0,0.03,0.02,0.05L1.33,6.2  c0,0.01,0,0.02,0.01,0.03c0.01,0.02,0,0,0.01,0.01c0,0,0,0,0,0.01c0,0.01,0,0.02,0,0.03L1.4,6.35c0,0.01,0,0.02,0.01,0.03l0.04,0.07  C1.47,6.48,1.5,6.51,1.48,6.56C1.47,6.58,1.47,6.59,1.46,6.62C1.45,6.64,1.45,6.65,1.44,6.67c0,0.01,0,0.02,0,0.03L1.43,6.72  C1.42,6.74,1.42,6.77,1.42,6.79C1.4,6.85,1.4,6.84,1.38,6.89C1.38,6.91,1.38,6.93,1.37,6.95C1.36,6.97,1.36,6.99,1.35,7.01  c0,0.04-0.01,0.03-0.01,0.05c-0.01,0.02,0,0.04-0.01,0.06C1.32,7.15,1.32,7.19,1.3,7.21c0,0,0,0,0,0L1.29,7.26c0,0.01,0,0.02,0,0.03  C1.27,7.32,1.27,7.3,1.27,7.34c0,0.02-0.01,0.03-0.02,0.05c-0.01,0.02,0,0.04-0.01,0.06C1.22,7.49,1.22,7.54,1.21,7.57  C1.2,7.58,1.2,7.62,1.18,7.64S1.18,7.68,1.17,7.69c0,0,0,0,0,0c0,0,0,0,0,0C1.15,7.75,1.16,7.77,1.15,7.79  C1.14,7.8,1.14,7.8,1.14,7.82C1.13,7.85,1.13,7.86,1.12,7.89c0,0,0,0.01,0,0.01C1.11,7.93,1.11,7.94,1.09,7.99  C1.08,8.01,1.08,8.03,1.07,8.05c-0.01,0.02,0,0.05-0.01,0.08L1.04,8.18C1.04,8.23,1.02,8.26,1.02,8.3c0.07,0,0.08-0.02,0.12-0.02  c0.02,0,0.04,0,0.06-0.01c0.03-0.01,0.08-0.01,0.11-0.03C1.33,8.23,1.37,8.23,1.4,8.23c0.01,0,0.01,0,0.01,0l0.04-0.01  c0.02,0,0.01,0,0.03-0.01l0.05-0.02c0.03,0,0.04,0,0.06-0.01c0.03-0.01,0.06-0.01,0.09-0.02c0.01,0,0.01-0.01,0.02-0.01c0,0,0,0,0,0  c0.01,0,0.05,0,0.07,0c0.02,0,0.03-0.01,0.05-0.02c0.02-0.01,0.04,0,0.06-0.01C1.91,8.1,1.95,8.1,1.99,8.09  c0.02,0,0.03-0.01,0.06-0.01c0.03,0,0.19-0.04,0.23-0.05C2.3,8.01,2.32,8.01,2.35,8L2.38,8c0.02,0,0.04-0.01,0.06-0.01l0.11-0.03  C2.6,7.94,2.63,7.95,2.66,7.93C2.69,7.92,2.79,7.9,2.83,7.89c0.02,0,0.04-0.01,0.06-0.01l0.09,0.05c0.02,0.02,0.03,0,0.05,0.02  c0.01,0.01,0.01,0,0.02,0.01c0.02,0.01,0,0,0.02,0.02C3.08,7.99,3.09,7.99,3.11,8l0.06,0.03C3.18,8.03,3.2,8.03,3.22,8.04  c0.03,0.02,0.07,0.03,0.1,0.04c0.02,0,0.03,0.02,0.05,0.02c0.02,0.01,0.03,0.01,0.05,0.02c0.01,0,0.02,0,0.03,0.01  c0.02,0.01,0,0,0.02,0.01L3.5,8.15c0.04,0.01,0,0.01,0.06,0.02c0.02,0,0.02,0.01,0.03,0.01C3.62,8.19,3.65,8.19,3.68,8.2  c0.02,0.01,0,0,0.02,0.01c0.01,0,0.02,0,0.03,0.01c0.06,0.01,0.03,0,0.05,0.02c0.02,0.01,0.04,0,0.06,0.01  c0.03,0,0.03,0.01,0.05,0.02c0.02,0,0.04,0.01,0.06,0.01l0.09,0.02C4.08,8.29,4.16,8.3,4.2,8.3l0.2,0.01c0.02,0,0.04,0.01,0.06,0.01  c0.19,0.01,0.21,0,0.41-0.01c0.04,0,0.07,0,0.11,0l0.15-0.02c0.04-0.01,0.06-0.02,0.14-0.03c0.03,0,0.01-0.01,0.04-0.01  c0.02,0,0.04,0,0.05,0C5.4,8.23,5.4,8.22,5.44,8.22c0.02,0,0.03,0,0.04-0.01c0.03-0.01,0.1-0.03,0.13-0.04l0.16-0.06  c0.06-0.02,0.13-0.04,0.19-0.07c0.02-0.01,0.01,0,0.06-0.02C6.05,8,6.08,8,6.1,7.98c0.02-0.01,0-0.01,0.04-0.02  c0.02-0.01,0.08-0.04,0.11-0.06l0.34-0.2c0.02-0.01,0.05-0.02,0.07-0.04C6.67,7.65,6.68,7.64,6.7,7.63c0.04-0.03,0.06-0.04,0.1-0.07  C6.8,7.55,6.81,7.54,6.82,7.53c0.01-0.01,0.01,0,0.02-0.01l0.05-0.04c0.02-0.02,0.04-0.03,0.06-0.05L6.98,7.4  c0,0,0.01-0.01,0.01-0.01C7,7.38,7,7.39,7.01,7.38l0.03-0.03c0.02-0.01,0.02-0.01,0.03-0.03C7.08,7.32,7.08,7.31,7.1,7.3l0.08-0.09  c0.03-0.03,0.08-0.07,0.1-0.1c0.04-0.06,0.09-0.11,0.14-0.17c0,0,0.01-0.01,0.01-0.01l0.05-0.07C7.5,6.84,7.5,6.81,7.53,6.79  c0.02-0.02,0.03-0.05,0.05-0.07C7.59,6.7,7.6,6.68,7.62,6.66c0.02-0.02,0-0.02,0.02-0.03l0.03-0.05C7.68,6.54,7.7,6.52,7.73,6.5  c0.01-0.01,0.01-0.02,0.02-0.04c0.02-0.05,0.08-0.13,0.11-0.2c0-0.01,0-0.01,0.01-0.02C7.87,6.2,7.87,6.19,7.89,6.16l0.03-0.08  c0.01-0.03,0.01-0.01,0.02-0.04l0.03-0.08c0.02-0.05,0.04-0.07,0.04-0.12c0-0.02,0.01-0.02,0.02-0.04c0-0.02,0.01-0.03,0.01-0.05  c0-0.01,0.01-0.03,0.01-0.04c0.01-0.03,0.02-0.06,0.03-0.09c0-0.03,0.02-0.05,0.02-0.09l0.02-0.09C8.13,5.4,8.13,5.38,8.14,5.35  c0.01-0.03,0.01-0.06,0.02-0.1c0.01-0.08,0.02-0.12,0.02-0.2c0-0.02,0-0.03,0-0.05l0.01-0.05c0.01-0.07,0.01-0.39,0-0.44  c0-0.03-0.01-0.07-0.01-0.1c0-0.03-0.01-0.07-0.01-0.1c0-0.05-0.01-0.06-0.01-0.1L8.13,4.08c-0.01-0.03,0-0.09-0.02-0.12  c-0.01-0.01,0,0-0.01-0.02C8.1,3.85,8.1,3.89,8.09,3.84c0-0.01,0-0.01,0-0.02c0-0.02-0.02-0.06-0.03-0.08L8.04,3.65  c0-0.02-0.01-0.01-0.02-0.04c0-0.02,0-0.03-0.01-0.05C7.98,3.51,7.96,3.46,7.94,3.4c0-0.01-0.01-0.03-0.02-0.04  c-0.01-0.01,0-0.01-0.01-0.02L7.89,3.29C7.88,3.27,7.88,3.25,7.86,3.23c-0.02-0.03,0-0.01-0.02-0.04L7.83,3.15  c0-0.02,0-0.01-0.01-0.02L7.79,3.08c-0.01-0.01,0,0-0.01-0.02c0-0.01,0,0,0-0.01l-0.05-0.1c0-0.01,0-0.01-0.01-0.02L7.69,2.89  C7.68,2.86,7.67,2.86,7.65,2.82C7.64,2.8,7.62,2.77,7.6,2.75L7.52,2.64C7.49,2.6,7.47,2.55,7.43,2.51C7.42,2.49,7.42,2.5,7.41,2.48  c-0.01-0.03-0.07-0.1-0.1-0.13C7.29,2.33,7.28,2.31,7.26,2.29C7.22,2.26,7.2,2.23,7.17,2.2c0,0,0,0,0,0L7.03,2.07  C7.02,2.06,7.02,2.05,7,2.04C6.97,2.02,6.94,1.99,6.91,1.96L6.82,1.89C6.8,1.87,6.79,1.86,6.77,1.85C6.74,1.83,6.74,1.82,6.69,1.79  C6.68,1.78,6.68,1.78,6.67,1.78L6.64,1.76C6.62,1.75,6.6,1.74,6.59,1.72C6.57,1.7,6.55,1.7,6.52,1.68L6.47,1.64  c-0.01,0-0.01-0.01-0.02-0.01C6.44,1.62,6.37,1.58,6.35,1.57c-0.02-0.01-0.01,0-0.03-0.01L6.26,1.53c0,0,0,0,0,0l-0.1-0.05  C6.14,1.46,6.15,1.47,6.12,1.46C6.1,1.45,6.11,1.44,6.09,1.44L6.05,1.42c-0.02-0.01-0.02,0-0.04-0.01C5.99,1.4,5.99,1.4,5.97,1.39  c-0.03-0.01-0.01,0-0.02-0.01C5.93,1.37,5.83,1.34,5.8,1.33L5.71,1.31C5.69,1.3,5.69,1.3,5.67,1.29C5.64,1.28,5.52,1.24,5.5,1.24  c-0.05,0-0.05-0.02-0.09-0.02c-0.02,0-0.03,0-0.05-0.01C5.34,1.2,5.3,1.2,5.27,1.19c-0.02,0-0.03,0-0.04-0.01  c-0.02-0.01-0.07-0.01-0.1-0.02c-0.03-0.01-0.07-0.01-0.1-0.01c-0.04-0.01-0.07,0-0.11,0c-0.14-0.02-0.4-0.03-0.54-0.01  C4.31,1.14,4.22,1.14,4.16,1.15l-0.2,0.03C3.94,1.18,3.9,1.19,3.87,1.19c-0.02,0,0,0-0.01,0L3.83,1.21c-0.01,0.01-0.04,0-0.05,0.01  L3.6,1.26C3.59,1.27,3.58,1.28,3.57,1.28c-0.02,0-0.03,0-0.05,0.01L3.44,1.32C3.42,1.33,3.41,1.32,3.39,1.33L3.31,1.36  C3.29,1.37,3.29,1.37,3.27,1.38C3.25,1.38,3.25,1.39,3.23,1.4L3.11,1.44C3.1,1.45,3.09,1.46,3.07,1.46L2.96,1.52c0,0,0,0,0,0  c0,0,0,0,0,0c-0.01,0.01,0.01,0-0.01,0C2.92,1.53,2.91,1.54,2.89,1.56C2.86,1.58,2.75,1.63,2.73,1.65C2.71,1.66,2.7,1.66,2.69,1.67  C2.68,1.68,2.66,1.7,2.64,1.7c-0.04,0.01-0.01,0-0.03,0.02L2.34,1.91C2.32,1.93,2.32,1.93,2.29,1.95C2.25,1.99,2.24,2,2.22,2.02  C2.22,2.02,2.21,2.03,2.21,2.03C2.19,2.04,2.17,2.05,2.16,2.06C2.14,2.09,2.12,2.1,2.1,2.12C2.09,2.13,2.09,2.14,2.07,2.15  C2.05,2.17,2.04,2.19,2.01,2.21C1.99,2.23,2,2.23,1.98,2.25c0,0.01-0.01,0.01-0.01,0.01C1.96,2.28,1.95,2.28,1.94,2.29L1.89,2.35  C1.88,2.36,1.85,2.4,1.83,2.41C1.82,2.43,1.81,2.46,1.78,2.48C1.76,2.49,1.73,2.54,1.71,2.56C1.7,2.57,1.68,2.6,1.66,2.63L1.64,2.65  c0,0,0,0.01-0.01,0.02c-0.01,0.02,0,0-0.01,0.02C1.59,2.73,1.61,2.72,1.57,2.77C1.55,2.8,1.55,2.8,1.53,2.84L1.52,2.85  C1.51,2.86,1.49,2.88,1.48,2.9L1.41,3.03C1.4,3.05,1.39,3.06,1.39,3.09C1.38,3.12,1.36,3.14,1.35,3.17L1.34,3.2  C1.33,3.22,1.32,3.22,1.32,3.24c-0.01,0.02,0,0.02-0.02,0.04C1.28,3.32,1.27,3.37,1.25,3.4L1.21,3.53C1.19,3.56,1.17,3.64,1.16,3.65  L1.15,3.7c0,0.04-0.02,0.08-0.03,0.11C1.11,3.84,1.1,3.88,1.09,3.92L1.04,4.2c0,0.06-0.02,0.1-0.02,0.15c0,0.06,0,0.11-0.01,0.16  c0,0.03,0,0.07,0,0.11C1.01,4.65,1,4.65,1,4.67C1,4.69,1,4.71,1,4.73z"/>
</svg>